<svg id="Layer_1" xmlns="http://www.w3.org/2000/svg" viewBox="0 0 129 43"><style>.st0{fill:#fff}</style><path d="M107.6 0h-.4C95.4 0 85.7 9.6 85.7 21.3v.4c0 11.7 9.6 21.3 21.4 21.3h.4c11.8 0 21.4-9.6 21.4-21.3v-.4C129 9.6 119.4 0 107.6 0zM21.6 0h-.4C9.4 0 0 9.7 0 21.3v.4C0 33.5 9.6 43 21.2 43h.4c11.8 0 21.2-9.7 21.2-21.3v-.4C42.9 9.5 33.2 0 21.6 0z"/><path d="M64.7 0h-.6C52.3 0 42.9 9.7 42.9 21.3v.4c0 11.8 9.6 21.3 21.2 21.3h.4c11.8 0 21.2-9.7 21.2-21.3v-.4C85.9 9.5 76.3 0 64.7 0z"/><path class="st0" d="M70 19.4s.1-1.7-1.5-2.5c-.7-.4-1.6-.4-2.3-.2-1.1.3-2.5 1.2-1.7 3.5 0 0-3.5.1-5-1.7 0 0-.9 3.7 3.3 4.4 0 0-1.3 1.8-6 .9 0 0 7.2 6 11.9.3.7-.9.9-2.1 1.5-3.4 0 0 .9 0 1.6-.9 0-.2-.8 0-1.8-.4zm-1.4-.6c-.2 0-.4-.2-.4-.4s.2-.4.4-.4.4.2.4.4-.2.4-.4.4zM19.4 28v-6.8h-1.1v-1.9h1.1v-.4c0-1.1.4-2.2 1.1-3 .7-.6 1.6-.9 2.5-.9.6 0 1.1.2 1.5.2l-.2 2.1c-.2 0-.6-.2-1-.2-.9 0-1.3.7-1.3 1.6v.5h1.8v1.9H22v6.8c0 .1-2.6.1-2.6.1zM104.8 19v-1c0-.4-.4-1-1-1-.7 0-1 .6-1 1v6.8c0 .4.4 1 1 1 .8 0 1.2-.6 1.2-1.5v-1.9h-1.2v-1.7h3.1v3.6c0 1.6-1 3-3 3-2.3 0-3.2-1.5-3.2-2.6v-6.8c0-1.2.8-2.6 3.2-2.6 2.1 0 3 1.5 3 2.6v1h-2.1zM111.4 18.2v2.6h2.5V22h-2.5v2.6h-1.2V22h-2.5v-1.2h2.5v-2.6h1.2z"/></svg>